<?xml version="1.0" standalone="no"?><svg id="mainSVG" fill="#1d4ed8" viewBox="0 0 500 500" xmlns="http://www.w3.org/2000/svg" xmlns:xlink="http://www.w3.org/1999/xlink"><rect x="0" y="0" width="500" height="500" fill="transparent"></rect><defs><clipPath id="shape"><path id="blobImage" d="M448.5,300.5Q459,351,412.5,373.5Q366,396,329.5,416.5Q293,437,248.5,445Q204,453,152.5,445Q101,437,69,394.5Q37,352,31,301Q25,250,55,210.5Q85,171,101,127.5Q117,84,159,59.5Q201,35,249.5,38Q298,41,346,55.5Q394,70,401.5,121.5Q409,173,423.5,211.5Q438,250,448.5,300.5Z"></path></clipPath></defs><image x="0" y="0" width="100%" height="100%" clip-path="url(#shape)" xlink:href="https://th.bing.com/th/id/OIG4.L5vrN9NSvvx_D8BcCVZT?pid=ImgGn" preserveAspectRatio="none"></image></svg>